<svg id="Layer_1" data-name="Layer 1" xmlns="http://www.w3.org/2000/svg" viewBox="0 0 316.83 189.81"><path d="M280.75,33.54,276,51.36H247.39L239.87,78.5h27.34l-7.08,26.71H232.79l-8.48,33.24h32.4L246.9,165H184.64l37-140.09h57.1L273,0H0L35.59,154.17l34-129.31h33L72.69,137.61h36.5L99.77,165H38.08l5.74,24.86h273ZM172.86,165H108.07l1-3.57c7.47-26.09,16.51-44.18,34-61.43,22-21.66,22.64-24.61,26.1-38.49,1.86-7.36,1.16-10.1-2-10.1s-4.91,1.47-7.26,10.1L156.85,73H127.4l2.38-9.26c4.77-18.72,12.25-37,41.07-37,28.6,0,34.42,17.46,28.07,42.28-4.78,18.93-13.78,26.08-30.69,43.75-10.68,11.15-16.72,18.1-20.06,25.46H183.3Z"/></svg>